<mxfile host="Electron" modified="2024-06-23T09:08:49.553Z" agent="Mozilla/5.0 (X11; Linux x86_64) AppleWebKit/537.36 (KHTML, like Gecko) draw.io/21.6.5 Chrome/114.0.5735.243 Electron/25.3.1 Safari/537.36" etag="QLrsYgzt89Zz1N6jQt8p" version="21.6.5" type="device">
  <diagram id="C5RBs43oDa-KdzZeNtuy" name="Page-1">
    <mxGraphModel dx="1024" dy="681" grid="1" gridSize="10" guides="1" tooltips="1" connect="1" arrows="1" fold="1" page="1" pageScale="1" pageWidth="1200" pageHeight="1600" math="0" shadow="0">
      <root>
        <mxCell id="WIyWlLk6GJQsqaUBKTNV-0" />
        <mxCell id="WIyWlLk6GJQsqaUBKTNV-1" parent="WIyWlLk6GJQsqaUBKTNV-0" />
        <mxCell id="kuJ6e55iKPyWT1G7RKld-0" value="&amp;nbsp; Language Concept Extractor" style="rounded=0;whiteSpace=wrap;html=1;verticalAlign=top;align=left;spacingRight=5;dashed=1;" parent="WIyWlLk6GJQsqaUBKTNV-1" vertex="1">
          <mxGeometry x="150" y="80" width="490" height="220" as="geometry" />
        </mxCell>
        <mxCell id="A835rG-ZU4SIAA-VOIof-2" style="edgeStyle=orthogonalEdgeStyle;rounded=0;orthogonalLoop=1;jettySize=auto;html=1;exitX=0.5;exitY=1;exitDx=0;exitDy=0;entryX=0.5;entryY=0;entryDx=0;entryDy=0;startArrow=none;startFill=0;endArrow=classicThin;endFill=1;" parent="WIyWlLk6GJQsqaUBKTNV-1" source="kuJ6e55iKPyWT1G7RKld-4" target="dk-3HszmHe37V2y0tY3l-19" edge="1">
          <mxGeometry relative="1" as="geometry" />
        </mxCell>
        <mxCell id="kuJ6e55iKPyWT1G7RKld-4" value="Traversers&lt;br&gt;+&lt;br&gt;Processors" style="rounded=0;whiteSpace=wrap;html=1;" parent="WIyWlLk6GJQsqaUBKTNV-1" vertex="1">
          <mxGeometry x="335" y="125.01" width="120" height="50" as="geometry" />
        </mxCell>
        <mxCell id="A835rG-ZU4SIAA-VOIof-4" style="edgeStyle=orthogonalEdgeStyle;rounded=0;orthogonalLoop=1;jettySize=auto;html=1;exitX=0.5;exitY=1;exitDx=0;exitDy=0;entryX=0.5;entryY=0;entryDx=0;entryDy=0;startArrow=none;startFill=0;endArrow=classicThin;endFill=1;" parent="WIyWlLk6GJQsqaUBKTNV-1" source="kuJ6e55iKPyWT1G7RKld-35" target="mv7OeZ9UjM8xIfjCpKtX-0" edge="1">
          <mxGeometry relative="1" as="geometry" />
        </mxCell>
        <mxCell id="kuJ6e55iKPyWT1G7RKld-35" value="Post-Processors" style="rounded=0;whiteSpace=wrap;html=1;" parent="WIyWlLk6GJQsqaUBKTNV-1" vertex="1">
          <mxGeometry x="500" y="125.00999999999999" width="120" height="50" as="geometry" />
        </mxCell>
        <mxCell id="dk-3HszmHe37V2y0tY3l-33" style="edgeStyle=orthogonalEdgeStyle;rounded=0;orthogonalLoop=1;jettySize=auto;html=1;exitX=0;exitY=0.5;exitDx=0;exitDy=0;fontSize=9;startArrow=classicThin;startFill=1;endArrow=none;endFill=0;" parent="WIyWlLk6GJQsqaUBKTNV-1" source="gOcIl-tERdk0N4hAx4KS-4" target="dk-3HszmHe37V2y0tY3l-31" edge="1">
          <mxGeometry relative="1" as="geometry" />
        </mxCell>
        <mxCell id="A835rG-ZU4SIAA-VOIof-0" style="edgeStyle=orthogonalEdgeStyle;rounded=0;orthogonalLoop=1;jettySize=auto;html=1;exitX=0.5;exitY=1;exitDx=0;exitDy=0;entryX=0.5;entryY=0;entryDx=0;entryDy=0;startArrow=none;startFill=0;endArrow=classicThin;endFill=1;" parent="WIyWlLk6GJQsqaUBKTNV-1" source="gOcIl-tERdk0N4hAx4KS-4" target="dk-3HszmHe37V2y0tY3l-14" edge="1">
          <mxGeometry relative="1" as="geometry" />
        </mxCell>
        <mxCell id="gOcIl-tERdk0N4hAx4KS-4" value="&lt;span&gt;Native &lt;br&gt;Parser(s) and Tools&lt;br&gt;&lt;/span&gt;" style="rounded=0;whiteSpace=wrap;html=1;" parent="WIyWlLk6GJQsqaUBKTNV-1" vertex="1">
          <mxGeometry x="169.5" y="125" width="120.5" height="50" as="geometry" />
        </mxCell>
        <mxCell id="A835rG-ZU4SIAA-VOIof-1" style="edgeStyle=orthogonalEdgeStyle;rounded=0;orthogonalLoop=1;jettySize=auto;html=1;exitX=1;exitY=0.5;exitDx=0;exitDy=0;entryX=0;entryY=0.5;entryDx=0;entryDy=0;startArrow=none;startFill=0;endArrow=classicThin;endFill=1;" parent="WIyWlLk6GJQsqaUBKTNV-1" source="dk-3HszmHe37V2y0tY3l-14" target="kuJ6e55iKPyWT1G7RKld-4" edge="1">
          <mxGeometry relative="1" as="geometry">
            <Array as="points">
              <mxPoint x="310" y="245" />
              <mxPoint x="310" y="150" />
            </Array>
          </mxGeometry>
        </mxCell>
        <mxCell id="dk-3HszmHe37V2y0tY3l-14" value="&lt;i style=&quot;font-size: 12px ; text-align: left&quot;&gt;&lt;font style=&quot;font-size: 9px&quot;&gt;Parsed Source File Data&lt;br&gt;(ASTs + Language Services)&lt;/font&gt;&lt;/i&gt;" style="shape=parallelogram;perimeter=parallelogramPerimeter;whiteSpace=wrap;html=1;dashed=0;fontSize=9;size=0.10580517740001409;" parent="WIyWlLk6GJQsqaUBKTNV-1" vertex="1">
          <mxGeometry x="158.86999999999998" y="220" width="141.77" height="50" as="geometry" />
        </mxCell>
        <mxCell id="A835rG-ZU4SIAA-VOIof-3" style="edgeStyle=orthogonalEdgeStyle;rounded=0;orthogonalLoop=1;jettySize=auto;html=1;exitX=1;exitY=0.5;exitDx=0;exitDy=0;entryX=0;entryY=0.5;entryDx=0;entryDy=0;startArrow=none;startFill=0;endArrow=classicThin;endFill=1;" parent="WIyWlLk6GJQsqaUBKTNV-1" source="dk-3HszmHe37V2y0tY3l-19" target="kuJ6e55iKPyWT1G7RKld-35" edge="1">
          <mxGeometry relative="1" as="geometry">
            <Array as="points">
              <mxPoint x="480" y="245" />
              <mxPoint x="480" y="150" />
            </Array>
          </mxGeometry>
        </mxCell>
        <mxCell id="dk-3HszmHe37V2y0tY3l-19" value="&lt;i&gt;Language Concepts&lt;br&gt;(unconsolidated)&lt;br&gt;&lt;/i&gt;" style="shape=parallelogram;perimeter=parallelogramPerimeter;whiteSpace=wrap;html=1;dashed=0;fontSize=9;size=0.09891123489835853;" parent="WIyWlLk6GJQsqaUBKTNV-1" vertex="1">
          <mxGeometry x="325.88" y="220" width="138.23" height="50" as="geometry" />
        </mxCell>
        <mxCell id="dk-3HszmHe37V2y0tY3l-31" value="" style="html=1;verticalLabelPosition=bottom;align=center;labelBackgroundColor=#ffffff;verticalAlign=top;strokeWidth=1;strokeColor=#000000;shadow=0;dashed=0;shape=mxgraph.ios7.icons.folders;fontSize=9;" parent="WIyWlLk6GJQsqaUBKTNV-1" vertex="1">
          <mxGeometry x="50" y="114.86999999999999" width="70" height="70.25" as="geometry" />
        </mxCell>
        <mxCell id="dk-3HszmHe37V2y0tY3l-34" value="&lt;span style=&quot;font-family: &amp;#34;helvetica&amp;#34; ; font-size: 12px&quot;&gt;Project Source Files&lt;/span&gt;" style="text;html=1;strokeColor=none;fillColor=none;align=center;verticalAlign=middle;whiteSpace=wrap;rounded=0;fontSize=9;" parent="WIyWlLk6GJQsqaUBKTNV-1" vertex="1">
          <mxGeometry x="55" y="140.01" width="60" height="30" as="geometry" />
        </mxCell>
        <mxCell id="zSqHI1auP1kZm08jZZEy-0" value="" style="rounded=0;whiteSpace=wrap;html=1;strokeWidth=2;dashed=1;perimeterSpacing=2;dashPattern=1 1;strokeColor=none;fillColor=#C4C4C4;" parent="WIyWlLk6GJQsqaUBKTNV-1" vertex="1">
          <mxGeometry x="330" y="330" width="420" height="70" as="geometry" />
        </mxCell>
        <mxCell id="zSqHI1auP1kZm08jZZEy-1" value="&lt;span&gt;Component(s)&lt;br&gt;&lt;/span&gt;" style="rounded=0;whiteSpace=wrap;html=1;" parent="WIyWlLk6GJQsqaUBKTNV-1" vertex="1">
          <mxGeometry x="345" y="340" width="120.5" height="50" as="geometry" />
        </mxCell>
        <mxCell id="zSqHI1auP1kZm08jZZEy-2" value="&lt;i&gt;Data Structure&lt;br&gt;&lt;/i&gt;" style="shape=parallelogram;perimeter=parallelogramPerimeter;whiteSpace=wrap;html=1;dashed=0;fontSize=9;size=0.09891123489835853;" parent="WIyWlLk6GJQsqaUBKTNV-1" vertex="1">
          <mxGeometry x="481.77" y="340" width="138.23" height="50" as="geometry" />
        </mxCell>
        <mxCell id="zSqHI1auP1kZm08jZZEy-3" value="" style="endArrow=classic;html=1;rounded=0;" parent="WIyWlLk6GJQsqaUBKTNV-1" edge="1">
          <mxGeometry width="50" height="50" relative="1" as="geometry">
            <mxPoint x="650" y="374.31" as="sourcePoint" />
            <mxPoint x="730" y="374.31" as="targetPoint" />
          </mxGeometry>
        </mxCell>
        <mxCell id="zSqHI1auP1kZm08jZZEy-4" value="Data Flow" style="text;html=1;strokeColor=none;fillColor=none;align=center;verticalAlign=middle;whiteSpace=wrap;rounded=0;dashed=1;dashPattern=1 1;" parent="WIyWlLk6GJQsqaUBKTNV-1" vertex="1">
          <mxGeometry x="660" y="347" width="60" height="30" as="geometry" />
        </mxCell>
        <mxCell id="mv7OeZ9UjM8xIfjCpKtX-1" style="edgeStyle=orthogonalEdgeStyle;rounded=0;orthogonalLoop=1;jettySize=auto;html=1;exitX=1;exitY=0.5;exitDx=0;exitDy=0;entryX=0.514;entryY=1.004;entryDx=0;entryDy=0;entryPerimeter=0;" edge="1" parent="WIyWlLk6GJQsqaUBKTNV-1" source="mv7OeZ9UjM8xIfjCpKtX-0" target="mv7OeZ9UjM8xIfjCpKtX-3">
          <mxGeometry relative="1" as="geometry">
            <mxPoint x="730" y="240" as="targetPoint" />
          </mxGeometry>
        </mxCell>
        <mxCell id="mv7OeZ9UjM8xIfjCpKtX-0" value="&lt;i&gt;Language Concepts&lt;br&gt;(consolidated)&lt;br&gt;&lt;/i&gt;" style="shape=parallelogram;perimeter=parallelogramPerimeter;whiteSpace=wrap;html=1;dashed=0;fontSize=9;size=0.09891123489835853;" vertex="1" parent="WIyWlLk6GJQsqaUBKTNV-1">
          <mxGeometry x="490.88" y="220" width="138.23" height="50" as="geometry" />
        </mxCell>
        <mxCell id="mv7OeZ9UjM8xIfjCpKtX-3" value="" style="html=1;verticalLabelPosition=bottom;align=center;labelBackgroundColor=#ffffff;verticalAlign=top;strokeWidth=1;strokeColor=#000000;shadow=0;dashed=0;shape=mxgraph.ios7.icons.folders;fontSize=9;" vertex="1" parent="WIyWlLk6GJQsqaUBKTNV-1">
          <mxGeometry x="670" y="119.88999999999999" width="70" height="70.25" as="geometry" />
        </mxCell>
        <mxCell id="mv7OeZ9UjM8xIfjCpKtX-4" value="&lt;span style=&quot;font-family: &amp;quot;helvetica&amp;quot; ; font-size: 12px&quot;&gt;JSON&lt;br&gt;Export&lt;br&gt;&lt;/span&gt;" style="text;html=1;strokeColor=none;fillColor=none;align=center;verticalAlign=middle;whiteSpace=wrap;rounded=0;fontSize=9;" vertex="1" parent="WIyWlLk6GJQsqaUBKTNV-1">
          <mxGeometry x="675" y="145.01" width="60" height="30" as="geometry" />
        </mxCell>
      </root>
    </mxGraphModel>
  </diagram>
</mxfile>
